<svg id="Layer_1" data-name="Layer 1" xmlns="http://www.w3.org/2000/svg" viewBox="0 0 28.35 26.26"><defs><style>.cls-1{fill:#a1afbf;}</style></defs><path class="cls-1" d="M22.62,16.3V26.53a.57.57,0,0,1-.57.57H3.84a.57.57,0,0,1-.57-.57V7.74a1.56,1.56,0,0,0,.48.08H6.46A1.53,1.53,0,0,0,8,6.31V3.66a1.4,1.4,0,0,0-.06-.41H22.05a.58.58,0,0,1,.57.57v6.36l1.2-1.24V3.82a1.77,1.77,0,0,0-1.77-1.77H6.34l-.91.87h0L2.07,6.16V26.53a1.78,1.78,0,0,0,1.77,1.78H22.05a1.78,1.78,0,0,0,1.77-1.78V15.06ZM6.59,3.38c.18,0,.19.12.19.28V6.31a.31.31,0,0,1-.32.31H3.75A.33.33,0,0,1,3.5,6.5Z" transform="translate(-2.07 -2.05)"/><path class="cls-1" d="M18.52,16.08l-.26,1.34a.26.26,0,0,0,.32.3l1.32-.29Z" transform="translate(-2.07 -2.05)"/><path class="cls-1" d="M27.92,5.32,24.1,9.24l-1.17,1.21-4.09,4.21L21.28,17l4.09-4.21,1.18-1.21L30.36,7.7a.2.2,0,0,0,0-.28L28.2,5.32A.19.19,0,0,0,27.92,5.32Z" transform="translate(-2.07 -2.05)"/><rect class="cls-1" x="2.53" y="14.44" width="11.65" height="1.34"/><rect class="cls-1" x="2.53" y="17.64" width="16.45" height="1.34"/><rect class="cls-1" x="2.53" y="20.84" width="16.45" height="1.34"/></svg>